<?xml version="1.0" encoding="UTF-8"?><svg id="Layer_2" xmlns="http://www.w3.org/2000/svg" xmlns:xlink="http://www.w3.org/1999/xlink" viewBox="0 0 215.67 219.36"><defs><style>.cls-1{fill:url(#radial-gradient);}</style><radialGradient id="radial-gradient" cx="110.76" cy="108.15" fx="110.76" fy="108.15" r="112.57" gradientTransform="translate(0 217.12) scale(1 -1)" gradientUnits="userSpaceOnUse"><stop offset=".82" stop-color="#fff" stop-opacity="0"/><stop offset=".91" stop-color="#e50695"/><stop offset=".94" stop-color="#f68a34"/><stop offset=".96" stop-color="#ffd100"/><stop offset=".98" stop-color="#ffd100"/><stop offset=".98" stop-color="#ffd30b" stop-opacity=".91"/><stop offset=".98" stop-color="#ffd829" stop-opacity=".76"/><stop offset=".99" stop-color="#ffe15a" stop-opacity=".56"/><stop offset=".99" stop-color="#ffed9d" stop-opacity=".32"/><stop offset="1" stop-color="#fffdf2" stop-opacity=".04"/><stop offset="1" stop-color="#fff" stop-opacity="0"/></radialGradient></defs><g id="Calque_1"><path class="cls-1" d="m144.39,7.22C118.89-4.67,70.92-4.67,35.07,28.86-1.57,63.14-10.35,115.63,12.77,160.35c22.27,43.08,71.86,66.53,120.25,56.85,38.41-7.68,80.2-44.8,82.65-74.27-2.14.63-5.8,4.73-7.54,5.24-.64-.4,2.01-5.47.99-5.45-.98.02-1.56,1.26-2.23,2.18-13.45,23.76-29.91,40.29-53.52,50.53-34.7,15.06-68.12,13.13-98.76-9.2-30.97-22.57-43.73-54.14-38.29-92.03C23.69,42.82,73.28,7.71,124.71,16.5c2.23.38,4.43.88,7.04,1.41-.28-.96.23.13,0,0-5.74-4.31-23.75-7.91-35.98-6.45-11.77,1.41-20.11,2.77-38.09,11.74-.05.03-31.52,15.18-45.98,55.82-12.63,42.07,2.04,86.69,37,113.07,33.05,24.93,89,31.77,132.32-5.54-17.4,19.12-60.57,37.21-105,22.37C28.98,193.21-2.12,144.51,4.4,95.87,8.85,62.66,24.84,36.26,53.37,18.39,81.74.63,112.34-2.39,144.39,7.22Z"/></g></svg>