<svg version="1.1" xmlns="http://www.w3.org/2000/svg" viewBox="0 0 100 100">
    <symbol id="chevron-symbol" viewBox="0 0 48 26">
        <g>
            <path style="fill:none;stroke:inherit;stroke-linecap:round;stroke-width:4px;" d="M2,2l22.5,21.5L46,2" />
        </g>
    </symbol>
    <symbol id="hamburger-symbol" viewBox="0 0 32 24">
        <g>
            <path style="fill:none;stroke:inherit;stroke-linecap:round;stroke-width:4px;" d="M2.5,2.5l27,0M2.5,12l27,0M2.5,21.5l27,0" />
        </g>
    </symbol>
    <symbol id="checkbox-symbol" viewBox="0 0 24 24">
        <g>
            <path d="M0 0h24v24H0z" fill="none"/>
            <path d="M19 3H5c-1.11 0-2 .9-2 2v14c0 1.1.89 2 2 2h14c1.11 0 2-.9 2-2V5c0-1.1-.89-2-2-2zm-9 14l-5-5 1.41-1.41L10 14.17l7.59-7.59L19 8l-9 9z"/>
        </g>
    </symbol>

    <symbol id="appointment-symbol" viewBox="0 0 43.534 57.603">
        <g>
            <path d="M5.514,21.514a33.217,33.217,0,0,1,.376-3.628,18.8,18.8,0,0,1,37.084,6.069,18.29,18.29,0,0,1-6.387,11.894A18.352,18.352,0,0,1,24.57,40.4c-1.016.018-1.644.572-1.631,1.428s.652,1.368,1.68,1.359a19.82,19.82,0,0,0,7.487-1.449A21.3,21.3,0,0,0,45.572,25.406c.161-.8.236-1.608.35-2.412V20.218c-.028-.133-.064-.265-.083-.4-.115-.823-.181-1.657-.347-2.469A20.945,20.945,0,0,0,38.309,5.165,21.045,21.045,0,0,0,19.855.484,20.747,20.747,0,0,0,7.828,7.675a21.3,21.3,0,0,0-5.1,13.8,1.409,1.409,0,0,0,1.353,1.515,1.423,1.423,0,0,0,1.436-1.479" transform="translate(-2.388 0.001)" />
            <path d="M163.6,69.5a2.6,2.6,0,0,0-.113-.861,1.336,1.336,0,0,0-1.522-.845,1.39,1.39,0,0,0-1.149,1.465q-.01,6.176,0,12.351a1.4,1.4,0,0,0,1.529,1.481q4.025.006,8.05,0a1.4,1.4,0,1,0,.01-2.781q-2.961,0-5.922,0h-.879v-.587q0-5.112,0-10.223" transform="translate(-140.973 -59.407)" />
            <path d="M0,232.256l.007.066q0,.035.009.07a.692.692,0,0,1,.008.076c0,.192.005.385.006.577,0,.417,0,.849.046,1.281A20.886,20.886,0,0,0,1.838,240.6,29.406,29.406,0,0,0,11.7,252.893a16.66,16.66,0,0,0,4.064,2.215c.332.122.67.215,1,.305.145.04.29.08.434.122l.063.014.445.066c.1,0,.2.008.3.013.171.008.347.017.526.017.066,0,.132,0,.2,0a4.593,4.593,0,0,0,2.518-.846c.216-.154.433-.3.65-.456.675-.47,1.372-.956,2.018-1.5a3.077,3.077,0,0,0,.637-4.423c-.887-1.3-1.914-2.7-3.14-4.265a3.014,3.014,0,0,0-4-.657c-.661.419-1.3.887-1.91,1.34l-.405.3a15.387,15.387,0,0,1-3.033-3.084,18.065,18.065,0,0,1-2.37-3.913c-.115-.263-.212-.54-.314-.834l-.028-.08.233-.164c.411-.29.836-.59,1.241-.907l.029-.023a6.878,6.878,0,0,0,1.213-1.118,2.907,2.907,0,0,0,.114-3.489c-1.2-1.721-2.233-3.126-3.238-4.422a3.076,3.076,0,0,0-4.1-.7c-.886.562-1.8,1.2-2.957,2.073a4.554,4.554,0,0,0-1.619,2.436l-.017.03c-.013.024-.025.048-.036.073l-.03.063Zm19.991,14.27q1.184,1.622,2.365,3.247a1.4,1.4,0,0,1,.187.337c.049.136.151.419-.381.814-.279.207-.561.41-.843.612-.41.295-.833.6-1.243.914a2.766,2.766,0,0,1-2.229.562c-.134-.041-.269-.079-.4-.118-.307-.088-.6-.17-.874-.278a16.955,16.955,0,0,1-4.89-3.034A26.79,26.79,0,0,1,3.31,237.071a12.755,12.755,0,0,1-.692-4.634,2.554,2.554,0,0,1,1.062-2.07q.479-.339.956-.682.626-.448,1.254-.892c.574-.4.846-.361,1.265.2.3.4.6.816.889,1.216l.364.5q.219.3.441.6c.353.483.718.982,1.068,1.477a.58.58,0,0,1-.129.9c-.076.065-.163.127-.254.194l-.726.529q-.727.528-1.451,1.061a1.677,1.677,0,0,0-.684,1.951,18.387,18.387,0,0,0,.64,1.764,21.206,21.206,0,0,0,3.313,5.227,15.068,15.068,0,0,0,3.159,2.965,1.914,1.914,0,0,0,2.773-.092c.665-.5,1.376-1.035,2.109-1.534a.679.679,0,0,1,.373-.146.666.666,0,0,1,.479.286c.053.06.1.121.145.18Z" transform="translate(0 -198.042)" />
        </g>
    </symbol>

    <symbol id="reimbursement-symbol" viewBox="0 0 51.77 46.258">
        <g>
            <path d="M44.648,23.041a35.571,35.571,0,0,1,.4-3.885,20.136,20.136,0,0,1,39.717,6.5A20.142,20.142,0,0,1,65.057,43.272c-1.088.019-1.761.613-1.746,1.53s.7,1.465,1.8,1.456A21.227,21.227,0,0,0,73.128,44.7,22.812,22.812,0,0,0,87.551,27.21c.172-.852.252-1.722.375-2.584V21.653c-.03-.142-.069-.284-.089-.427-.124-.882-.194-1.774-.372-2.644a22.433,22.433,0,0,0-7.693-13.05A22.539,22.539,0,0,0,60.008.518a22.221,22.221,0,0,0-12.881,7.7A22.808,22.808,0,0,0,41.66,23a1.509,1.509,0,0,0,1.45,1.623,1.525,1.525,0,0,0,1.538-1.584" transform="translate(-36.155 0.001)" />
            <path d="M5.96,174.078l-5.6-5.834A1.269,1.269,0,0,1,1.3,166.1l11.438.231a1.269,1.269,0,0,1,.853,2.183l-5.834,5.6a1.269,1.269,0,0,1-1.794-.036" transform="translate(0 -144.148)" />
            <path d="M141.963,147.578a3.866,3.866,0,0,1-3.231,1.472,3.989,3.989,0,1,1,0-7.979,3.918,3.918,0,0,1,3.093,1.311.806.806,0,0,1,.207.517.646.646,0,0,1-.667.667.7.7,0,0,1-.575-.276,2.479,2.479,0,0,0-2.046-.966,2.739,2.739,0,0,0,0,5.473,2.463,2.463,0,0,0,2.138-1.081.692.692,0,0,1,.563-.276.634.634,0,0,1,.667.667.8.8,0,0,1-.149.471" transform="translate(-116.928 -122.43)" />
            <path d="M205.16,142.33V148.7a.686.686,0,1,1-1.368,0v-2.587h-4.357V148.7a.686.686,0,1,1-1.368,0V142.33a.686.686,0,1,1,1.368,0v2.529h4.357V142.33a.686.686,0,1,1,1.368,0" transform="translate(-171.894 -122.884)" />
            <path d="M268.236,142.115a.611.611,0,0,1,.678.633.6.6,0,0,1-.678.621H263.9v2.115H267.4a.593.593,0,0,1,.667.621.6.6,0,0,1-.667.632H263.9v2.414a.686.686,0,1,1-1.368,0v-6.3a.677.677,0,0,1,.736-.736Z" transform="translate(-227.843 -123.336)" />
        </g>
    </symbol>

    <symbol id="prescription-symbol" viewBox="0 0 52.782 52.682">
        <g>
            <path d="M52.782,19.343v1.029a6.467,6.467,0,0,1-2.165,3.571c-3.372,3.326-6.708,6.689-10.067,10.028a1.084,1.084,0,0,0-.351.851q.018,6.4.007,12.807a4.69,4.69,0,0,1-5.084,5.051H29.711q-12.368,0-24.737,0a4.545,4.545,0,0,1-4.046-1.93A11.968,11.968,0,0,1,0,48.564V4.115a.8.8,0,0,0,.077-.183,4.562,4.562,0,0,1,1.677-2.9A5.557,5.557,0,0,1,4.124,0H31.752a6.352,6.352,0,0,1,3.559,2.178c1.055,1.1,2.141,2.175,3.239,3.234A5.228,5.228,0,0,1,40.215,9.4c-.026,3.717-.008,7.434-.008,11.151V21.2c.2-.187.328-.295.444-.41,1.359-1.356,2.708-2.724,4.078-4.069a4.582,4.582,0,0,1,7.157.475,9.728,9.728,0,0,1,.9,2.151M37.11,37.551a9.518,9.518,0,0,1-1.049.507c-2,.677-4.005,1.324-6,2.005a1.664,1.664,0,0,1-1.866-.285,1.644,1.644,0,0,1-.295-1.86c.678-1.976,1.312-3.967,2-5.938a3.224,3.224,0,0,1,.716-1.157c2.045-2.081,4.125-4.128,6.174-6.205a1.179,1.179,0,0,0,.308-.748c.02-3.669.013-7.339.013-11.009v-.515c-2.548,0-5.021,0-7.493,0a1.581,1.581,0,0,1-1.784-1.768q-.005-3.447,0-6.894v-.6H5.117c-1.5,0-2.022.516-2.022,2V47.575c0,1.494.519,2.017,2,2.017H35.145c.172,0,.344.006.515-.008A1.506,1.506,0,0,0,37.1,48.11c.017-3.515.007-7.029.007-10.559M38,32.027l7.306-7.262L43.277,22.74,35.969,30,38,32.027M37.091,9.241a1.544,1.544,0,0,0-.453-1.35q-2.157-2.168-4.331-4.319a1.465,1.465,0,0,0-1.346-.454V9.241ZM47.654,22.429c.539-.516,1.137-1.028,1.66-1.607a1.471,1.471,0,0,0-.071-2.045,1.5,1.5,0,0,0-2.089-.09c-.579.522-1.1,1.112-1.6,1.636l2.1,2.105M35.751,34.4l-2.176-2.188c-.24.253-.621.492-.755.829-.408,1.02-.721,2.078-1.124,3.281,1.441-.744,3.107-.632,4.056-1.923" />
            <path d="M60.332,122.838q-5.309,0-10.618,0a1.544,1.544,0,0,1-1.6-2.045,1.5,1.5,0,0,1,1.349-1.03,4.829,4.829,0,0,1,.515-.009H70.8c1.236,0,1.954.569,1.953,1.545s-.719,1.541-1.957,1.541H60.332" transform="translate(-41.827 -104.318)" />
            <path d="M57.253,170.718c-2.508,0-5.017,0-7.525,0a1.6,1.6,0,0,1-1.485-.753,1.53,1.53,0,0,1,1.251-2.327c.462-.029.927-.009,1.391-.009H64.544c.172,0,.344-.005.515,0a1.547,1.547,0,0,1,1.505,1.524,1.524,1.524,0,0,1-1.529,1.549c-1.529.023-3.058.008-4.587.008h-3.2" transform="translate(-41.825 -146.024)" />
            <path d="M57.3,218.654c-2.56,0-5.12.009-7.68,0a1.544,1.544,0,1,1,.043-3.083q3.015,0,6.031,0c3.058,0,6.116-.006,9.175,0a1.54,1.54,0,0,1,1.541,2.159,1.579,1.579,0,0,1-1.585.928c-2.508-.007-5.017,0-7.525,0" transform="translate(-41.803 -187.787)" />
            <path d="M57.273,263.469c2.543,0,5.086-.008,7.628,0a1.538,1.538,0,0,1,1.528,2.134,1.506,1.506,0,0,1-1.465.946c-.893.009-1.787,0-2.68,0q-6.288,0-12.577,0a1.551,1.551,0,0,1-1.6-2.088,1.573,1.573,0,0,1,1.589-.994q3.788-.006,7.577,0" transform="translate(-41.813 -229.516)" />
            <path d="M150.273,336.935c1.46,0,2.921,0,4.381,0a1.554,1.554,0,1,1,0,3.084q-4.433.005-8.865,0a1.554,1.554,0,1,1,0-3.084c1.495,0,2.99,0,4.484,0" transform="translate(-125.479 -293.515)" />
        </g>
    </symbol>

    <view id="checkbox-white" viewBox="0 0 10 10"/>
    <use href="#checkbox-symbol" width="10" height="10" x='0' y='0' fill="#fefefe"/>

</svg>
