<?xml version="1.0" encoding="utf-8"?>
<!-- Generator: Adobe Illustrator 26.0.2, SVG Export Plug-In . SVG Version: 6.00 Build 0)  -->
<svg version="1.1" id="Calque_1" xmlns="http://www.w3.org/2000/svg" xmlns:xlink="http://www.w3.org/1999/xlink" x="0px" y="0px"
	 viewBox="0 0 283.46 283.46" style="enable-background:new 0 0 283.46 283.46;" xml:space="preserve">
<style type="text/css">
	.st0{fill:url(#SVGID_1_);}
	.st1{fill:#868686;}
	.st2{fill:#878787;}
	.st3{fill:url(#SVGID_00000097461073383619138240000015853460616758270655_);}
	.st4{fill:url(#SVGID_00000180355354204586855720000009300990353121879475_);}
	.st5{fill:url(#SVGID_00000016782563874185471450000001434319488114369962_);}
	.st6{fill:url(#SVGID_00000152253669711471211750000001168696212943969207_);}
	.st7{fill:url(#SVGID_00000178166193846904196300000006293765196045489074_);}
	.st8{fill:url(#SVGID_00000148648250955753970010000015434825782057777853_);}
	.st9{fill:url(#SVGID_00000029753827020156697610000013718329277484287656_);}
</style>
<g>
	<g>
		<g>
			<radialGradient id="SVGID_1_" cx="122.3919" cy="141.3751" r="112.5745" gradientUnits="userSpaceOnUse">
				<stop  offset="0.8249" style="stop-color:#FFFFFF;stop-opacity:0"/>
				<stop  offset="0.9056" style="stop-color:#E50695"/>
				<stop  offset="0.9416" style="stop-color:#F68A34"/>
				<stop  offset="0.9621" style="stop-color:#FFD100"/>
				<stop  offset="0.9798" style="stop-color:#FFD100"/>
				<stop  offset="0.9815" style="stop-color:#FFD30B;stop-opacity:0.9135"/>
				<stop  offset="0.9846" style="stop-color:#FFD829;stop-opacity:0.7605"/>
				<stop  offset="0.9887" style="stop-color:#FFE15A;stop-opacity:0.5589"/>
				<stop  offset="0.9936" style="stop-color:#FFED9D;stop-opacity:0.3162"/>
				<stop  offset="0.9992" style="stop-color:#FFFDF2;stop-opacity:0.0416"/>
				<stop  offset="1" style="stop-color:#FFFFFF;stop-opacity:0"/>
			</radialGradient>
			<path class="st0" d="M156.02,39.63C130.52,27.74,82.55,27.74,46.7,61.27C10.06,95.55,1.28,148.04,24.4,192.76
				c22.27,43.08,71.86,66.53,120.25,56.85c38.41-7.68,80.2-44.8,82.65-74.27c-2.14,0.63-5.8,4.73-7.54,5.24
				c-0.64-0.4,2.01-5.47,0.99-5.45c-0.98,0.02-1.56,1.26-2.23,2.18c-13.45,23.76-29.91,40.29-53.52,50.53
				c-34.7,15.06-68.12,13.13-98.76-9.2c-30.97-22.57-43.73-54.14-38.29-92.03c7.37-51.38,56.96-86.49,108.39-77.7
				c2.23,0.38,4.43,0.88,7.04,1.41c-0.28-0.96,0.23,0.13,0,0c-5.74-4.31-23.75-7.91-35.98-6.45c-11.77,1.41-20.11,2.77-38.09,11.74
				c-0.05,0.03-31.52,15.18-45.98,55.82c-12.63,42.07,2.04,86.69,37,113.07c33.05,24.93,89,31.77,132.32-5.54
				c-17.4,19.12-60.57,37.21-105,22.37c-47.04-15.71-78.14-64.41-71.62-113.05C20.48,95.07,36.47,68.67,65,50.8
				C93.37,33.04,123.97,30.02,156.02,39.63z"/>
		</g>
	</g>
	<g>
		<path class="st1" d="M118.31,94.55v14c0,0.78-0.41,1.25-1.15,1.25s-1.18-0.47-1.18-1.25v-1.59h-0.07
			c-1.28,1.93-3.55,3.04-6.46,3.04c-4.87,0-8.15-3.38-8.15-8.45c0-5.07,3.28-8.45,8.15-8.45c2.91,0,5.17,1.12,6.46,3.04h0.07v-1.59
			c0-0.81,0.44-1.25,1.18-1.25S118.31,93.74,118.31,94.55z M115.97,101.55c0-3.75-2.54-6.36-6.15-6.36c-3.65,0-6.15,2.57-6.15,6.36
			c0,3.79,2.5,6.36,6.15,6.36C113.44,107.91,115.97,105.34,115.97,101.55z"/>
		<path class="st1" d="M133.56,107.09c-0.95,1.86-2.81,2.91-5.34,2.91c-3.65,0-5.92-2.37-5.92-6.29V89.27
			c0-0.78,0.44-1.25,1.15-1.25c0.74,0,1.18,0.47,1.18,1.25v4.23h7.03c0.71,0,1.15,0.37,1.15,1.05c0,0.64-0.44,1.05-1.15,1.05h-7.03
			v8.15c0,2.67,1.39,4.16,3.72,4.16c1.62,0,2.7-0.71,3.35-1.96c0.17-0.34,0.51-0.57,0.95-0.57c0.61,0,1.05,0.47,1.05,1.12
			C133.7,106.72,133.63,106.96,133.56,107.09z"/>
		<path class="st1" d="M150.71,102.36h-12.92c0.37,3.31,2.77,5.55,6.32,5.55c2.16,0,3.92-0.85,4.97-2.2
			c0.2-0.27,0.54-0.47,0.95-0.47c0.64,0,1.08,0.44,1.08,1.08c0,0.27-0.07,0.47-0.24,0.71c-1.45,1.86-3.89,2.98-6.76,2.98
			c-5.24,0-8.72-3.42-8.72-8.45c0-5.04,3.48-8.45,8.52-8.45c4.8,0,8.28,3.35,8.28,7.85C152.2,101.85,151.66,102.36,150.71,102.36z
			 M137.86,100.33H150c-0.47-3.08-2.81-5.14-6.09-5.14C140.67,95.19,138.33,97.25,137.86,100.33z"/>
		<path class="st1" d="M157.85,86.97v21.58c0,0.78-0.44,1.25-1.15,1.25c-0.74,0-1.18-0.47-1.18-1.25V86.97
			c0-0.78,0.44-1.25,1.18-1.25C157.41,85.72,157.85,86.2,157.85,86.97z"/>
		<path class="st1" d="M161.98,88.43c0-0.88,0.57-1.49,1.45-1.49c0.85,0,1.42,0.61,1.42,1.49c0,0.85-0.57,1.45-1.42,1.45
			C162.55,89.88,161.98,89.27,161.98,88.43z M164.58,94.55v14c0,0.78-0.44,1.25-1.15,1.25c-0.74,0-1.18-0.47-1.18-1.25v-14
			c0-0.81,0.44-1.25,1.18-1.25C164.14,93.3,164.58,93.74,164.58,94.55z"/>
		<path class="st1" d="M183.55,102.36h-12.92c0.37,3.31,2.77,5.55,6.32,5.55c2.16,0,3.92-0.85,4.97-2.2
			c0.2-0.27,0.54-0.47,0.95-0.47c0.64,0,1.08,0.44,1.08,1.08c0,0.27-0.07,0.47-0.24,0.71c-1.45,1.86-3.89,2.98-6.76,2.98
			c-5.24,0-8.72-3.42-8.72-8.45c0-5.04,3.48-8.45,8.52-8.45c4.8,0,8.28,3.35,8.28,7.85C185.04,101.85,184.5,102.36,183.55,102.36z
			 M170.7,100.33h12.14c-0.47-3.08-2.81-5.14-6.09-5.14C173.51,95.19,171.18,97.25,170.7,100.33z"/>
		<path class="st2" d="M197.8,94.31c0,0.74-0.47,1.15-1.15,1.15c-3.82,0-5.95,2.33-5.95,7.07v6.02c0,0.78-0.44,1.25-1.15,1.25
			c-0.74,0-1.18-0.47-1.18-1.25v-14c0-0.81,0.44-1.25,1.18-1.25c0.71,0,1.15,0.44,1.15,1.25v1.83h0.07
			c1.12-2.06,3.11-3.18,5.88-3.18C197.32,93.2,197.8,93.57,197.8,94.31z"/>

			<linearGradient id="SVGID_00000032626180015439705490000014994884929360314274_" gradientUnits="userSpaceOnUse" x1="115.4045" y1="128.7641" x2="291.7274" y2="128.7641">
			<stop  offset="0.2374" style="stop-color:#E50695"/>
			<stop  offset="0.3218" style="stop-color:#E81F82"/>
			<stop  offset="0.5018" style="stop-color:#F16052"/>
			<stop  offset="0.7614" style="stop-color:#FEC806"/>
			<stop  offset="0.7828" style="stop-color:#FFD100"/>
		</linearGradient>
		<path style="fill:url(#SVGID_00000032626180015439705490000014994884929360314274_);" d="M158.05,117.88v21.58
			c0,0.78-0.41,1.25-1.17,1.25c-0.76,0-1.21-0.47-1.21-1.25v-1.59h-0.07c-1.31,1.93-3.62,3.04-6.59,3.04
			c-4.97,0-8.32-3.38-8.32-8.45c0-5.07,3.35-8.45,8.32-8.45c2.97,0,5.28,1.12,6.59,3.04h0.07v-9.16c0-0.81,0.45-1.25,1.21-1.25
			C157.63,116.62,158.05,117.06,158.05,117.88z M155.67,132.45c0-3.75-2.59-6.36-6.28-6.36c-3.73,0-6.28,2.57-6.28,6.36
			c0,3.79,2.55,6.36,6.28,6.36C153.08,138.81,155.67,136.24,155.67,132.45z"/>

			<linearGradient id="SVGID_00000005239831234921628920000009792297890682782380_" gradientUnits="userSpaceOnUse" x1="116.2526" y1="135.6969" x2="289.0689" y2="135.6969">
			<stop  offset="0.2374" style="stop-color:#E50695"/>
			<stop  offset="0.3218" style="stop-color:#E81F82"/>
			<stop  offset="0.5018" style="stop-color:#F16052"/>
			<stop  offset="0.7614" style="stop-color:#FEC806"/>
			<stop  offset="0.7828" style="stop-color:#FFD100"/>
		</linearGradient>
		<path style="fill:url(#SVGID_00000005239831234921628920000009792297890682782380_);" d="M177.46,125.45v13.8
			c0,4.94-3.04,7.95-8.01,7.95c-2.98,0-5.48-0.88-6.8-2.67c-0.17-0.24-0.24-0.44-0.24-0.71c0-0.64,0.44-1.12,1.12-1.12
			c0.27,0,0.51,0.1,0.71,0.3c1.32,1.45,2.98,2.1,5.17,2.1c3.55,0,5.71-2.2,5.71-5.78v-1.62h-0.07c-1.22,1.83-3.28,2.91-6.02,2.91
			c-4.5,0-6.97-2.64-6.97-7.51v-7.64c0-0.81,0.44-1.25,1.15-1.25c0.74,0,1.18,0.44,1.18,1.25v7.44c0,3.65,1.79,5.61,5.14,5.61
			c3.38,0,5.58-2.44,5.58-6.29v-6.76c0-0.81,0.44-1.25,1.18-1.25C177.02,124.2,177.46,124.64,177.46,125.45z"/>

			<linearGradient id="SVGID_00000070807847274066165740000002850676765667664063_" gradientUnits="userSpaceOnUse" x1="116.2526" y1="132.3487" x2="289.0689" y2="132.3487">
			<stop  offset="0.2374" style="stop-color:#E50695"/>
			<stop  offset="0.3218" style="stop-color:#E81F82"/>
			<stop  offset="0.5018" style="stop-color:#F16052"/>
			<stop  offset="0.7614" style="stop-color:#FEC806"/>
			<stop  offset="0.7828" style="stop-color:#FFD100"/>
		</linearGradient>
		<path style="fill:url(#SVGID_00000070807847274066165740000002850676765667664063_);" d="M197.35,131.5v7.95
			c0,0.78-0.41,1.25-1.15,1.25s-1.18-0.47-1.18-1.25v-7.74c0-3.69-1.79-5.61-5.17-5.61c-3.45,0-5.65,2.44-5.65,6.29v7.07
			c0,0.78-0.44,1.25-1.15,1.25c-0.74,0-1.18-0.47-1.18-1.25v-14c0-0.78,0.44-1.25,1.18-1.25c0.71,0,1.15,0.47,1.15,1.25v1.45h0.07
			c1.22-1.83,3.31-2.91,6.09-2.91C194.92,124,197.35,126.63,197.35,131.5z"/>

			<linearGradient id="SVGID_00000137849058135089311920000015600523079625472408_" gradientUnits="userSpaceOnUse" x1="116.2526" y1="132.4498" x2="289.0689" y2="132.4498">
			<stop  offset="0.2374" style="stop-color:#E50695"/>
			<stop  offset="0.3218" style="stop-color:#E81F82"/>
			<stop  offset="0.5018" style="stop-color:#F16052"/>
			<stop  offset="0.7614" style="stop-color:#FEC806"/>
			<stop  offset="0.7828" style="stop-color:#FFD100"/>
		</linearGradient>
		<path style="fill:url(#SVGID_00000137849058135089311920000015600523079625472408_);" d="M217.65,125.45v14
			c0,0.78-0.41,1.25-1.15,1.25s-1.18-0.47-1.18-1.25v-1.59h-0.07c-1.29,1.93-3.55,3.04-6.46,3.04c-4.87,0-8.15-3.38-8.15-8.45
			c0-5.07,3.28-8.45,8.15-8.45c2.91,0,5.17,1.12,6.46,3.04h0.07v-1.59c0-0.81,0.44-1.25,1.18-1.25S217.65,124.64,217.65,125.45z
			 M215.31,132.45c0-3.75-2.54-6.36-6.15-6.36c-3.65,0-6.15,2.57-6.15,6.36c0,3.79,2.5,6.36,6.15,6.36
			C212.78,138.81,215.31,136.24,215.31,132.45z"/>

			<linearGradient id="SVGID_00000062908015575131202440000003391946585370373042_" gradientUnits="userSpaceOnUse" x1="116.2526" y1="132.3487" x2="289.0689" y2="132.3487">
			<stop  offset="0.2374" style="stop-color:#E50695"/>
			<stop  offset="0.3218" style="stop-color:#E81F82"/>
			<stop  offset="0.5018" style="stop-color:#F16052"/>
			<stop  offset="0.7614" style="stop-color:#FEC806"/>
			<stop  offset="0.7828" style="stop-color:#FFD100"/>
		</linearGradient>
		<path style="fill:url(#SVGID_00000062908015575131202440000003391946585370373042_);" d="M246.9,131.2v8.25
			c0,0.78-0.44,1.25-1.18,1.25c-0.71,0-1.15-0.47-1.15-1.25v-8.05c0-3.45-1.45-5.31-4.26-5.31c-2.87,0-4.67,2.3-4.67,5.92v7.44
			c0,0.78-0.44,1.25-1.18,1.25c-0.71,0-1.15-0.47-1.15-1.25v-8.05c0-3.45-1.45-5.31-4.29-5.31c-2.84,0-4.63,2.3-4.63,5.92v7.44
			c0,0.78-0.44,1.25-1.15,1.25c-0.74,0-1.18-0.47-1.18-1.25v-14c0-0.81,0.44-1.25,1.18-1.25c0.71,0,1.15,0.44,1.15,1.25v1.08h0.07
			c1.08-1.62,2.84-2.54,5.07-2.54c2.54,0,4.4,1.08,5.31,3.08h0.07c1.08-1.96,3.01-3.08,5.78-3.08C244.8,124,246.9,126.5,246.9,131.2
			z"/>

			<linearGradient id="SVGID_00000049920307421423672740000003962563561171215504_" gradientUnits="userSpaceOnUse" x1="116.2526" y1="129.2715" x2="289.0689" y2="129.2715">
			<stop  offset="0.2374" style="stop-color:#E50695"/>
			<stop  offset="0.3218" style="stop-color:#E81F82"/>
			<stop  offset="0.5018" style="stop-color:#F16052"/>
			<stop  offset="0.7614" style="stop-color:#FEC806"/>
			<stop  offset="0.7828" style="stop-color:#FFD100"/>
		</linearGradient>
		<path style="fill:url(#SVGID_00000049920307421423672740000003962563561171215504_);" d="M250.66,119.33
			c0-0.88,0.57-1.49,1.45-1.49c0.85,0,1.42,0.61,1.42,1.49c0,0.85-0.57,1.45-1.42,1.45C251.24,120.78,250.66,120.17,250.66,119.33z
			 M253.27,125.45v14c0,0.78-0.44,1.25-1.15,1.25c-0.74,0-1.18-0.47-1.18-1.25v-14c0-0.81,0.44-1.25,1.18-1.25
			C252.83,124.2,253.27,124.64,253.27,125.45z"/>

			<linearGradient id="SVGID_00000125592313039454939700000002451686596974714798_" gradientUnits="userSpaceOnUse" x1="116.2526" y1="132.4498" x2="289.0689" y2="132.4498">
			<stop  offset="0.2374" style="stop-color:#E50695"/>
			<stop  offset="0.3218" style="stop-color:#E81F82"/>
			<stop  offset="0.5018" style="stop-color:#F16052"/>
			<stop  offset="0.7614" style="stop-color:#FEC806"/>
			<stop  offset="0.7828" style="stop-color:#FFD100"/>
		</linearGradient>
		<path style="fill:url(#SVGID_00000125592313039454939700000002451686596974714798_);" d="M264.02,131.16
			c5.38,0.03,7.27,1.49,7.27,4.73c0,3.11-2.67,5.01-7.1,5.01c-3.28,0-5.65-0.74-7.24-2.3c-0.24-0.24-0.34-0.54-0.34-0.85
			c0-0.68,0.47-1.12,1.05-1.12c0.44,0,0.71,0.2,0.98,0.44c1.22,1.08,3.14,1.69,5.41,1.69c3.04,0,4.9-1.12,4.9-2.91
			c0-1.66-1.22-2.33-5.07-2.4c-5.24-0.1-7.03-1.39-7.03-4.43c0-3.04,2.77-5.04,7.03-5.04c2.74,0,4.77,0.61,6.26,1.89
			c0.27,0.24,0.41,0.51,0.41,0.95c0,0.64-0.44,1.12-1.05,1.12c-0.34,0-0.64-0.14-0.88-0.34c-1.15-0.95-2.88-1.52-4.6-1.52
			c-2.98,0-4.8,1.12-4.8,2.94C259.22,130.52,260.37,131.13,264.02,131.16z"/>
	</g>
</g>
</svg>
